<?xml version="1.0" standalone="no"?>
<!DOCTYPE svg PUBLIC "-//W3C//DTD SVG 1.1//EN" "http://www.w3.org/Graphics/SVG/1.1/DTD/svg11.dtd">
<svg xmlns="http://www.w3.org/2000/svg">
<metadata>Generated by Fontastic.me</metadata>
<defs>
<font id="font-icons" horiz-adv-x="512">
<font-face font-family="font-icons" units-per-em="512" ascent="480" descent="-32"/>
<missing-glyph horiz-adv-x="512" />

<glyph glyph-name="alert" unicode="&#57344;" d="M241 292l30 0 0-123-30 0z m0-137l30 0 0-35-30 0z m14 291l-247-380 496 0z m1-46l196-311-392 0z"/>
<glyph glyph-name="angle-down" unicode="&#57345;" d="M60 427l196-196 196 196 60-61-256-256-256 256z"/>
<glyph glyph-name="angle-down-o" unicode="&#57346;" d="M506 399c-9 9-22 9-31 0l-219-241-219 241c-9 9-22 9-31 0-8-8-8-22 0-30l234-256c4-5 10-7 16-7 6 0 12 2 16 7l234 256c8 8 8 22 0 30z"/>
<glyph glyph-name="angle-up" unicode="&#57347;" d="M0 171l256 256 256-256-60-61-196 196-196-196z"/>
<glyph glyph-name="angle-up-o" unicode="&#57348;" d="M506 143l-234 256c-4 5-10 7-16 7-6 0-12-2-16-7l-234-256c-8-8-8-22 0-30 9-9 22-9 31 0l219 241 219-241c9-9 22-9 31 0 8 8 8 22 0 30z"/>
<glyph glyph-name="attach" unicode="&#57349;" d="M185 114c5 0 9 1 13 4l0 0 161 143c18 17 26 33 27 57 1 19-5 36-17 49-12 13-30 20-51 22l-1 0c-22 1-43-7-59-22l-187-167c-47-42-51-106-11-152 21-22 48-35 79-37 30-2 59 8 82 29l233 209c60 53 65 145 12 205-26 29-62 46-100 48-39 2-76-11-105-37l-242-217c0 0-5-5-6-14 0-10 8-19 19-20 5 0 9 1 13 4l0 0 242 218c21 19 48 28 76 27 29-2 55-14 73-35 39-44 36-111-8-150l-233-209c-15-13-34-20-54-19-20 1-38 10-52 25-13 14-19 31-17 49 1 17 10 33 26 47l186 168c9 7 20 11 31 10 22-1 33-15 32-29-1-11-6-22-14-29l-161-144 0 0c-3-4-5-8-5-12-1-11 7-20 18-21z"/>
<glyph glyph-name="back" unicode="&#57350;" d="M504 270l-448 0 152 154-17 15-183-184 183-182 20 15-158 157 451 0z"/>
<glyph glyph-name="banking" unicode="&#57351;" d="M37 337l219 152 219-152-19-27-200 139-200-139z m342-41c-9 0-16-7-17-16 0 0 0 0 0-1 0-9 8-16 17-16 1 0 1 0 2 0l0-132-61 0 0 132c9-1 18 5 19 15 0 0 0 1 0 1 0 9-7 17-16 17 0 0 0 0 0 0l-37 0c-8 0-16-7-16-16 0 0 0 0 0-1 0-9 8-16 17-16 0 0 1 0 2 0l0-132-61 0 0 132c9-1 17 5 19 15 0 0 0 1 0 1 0 9-7 17-16 17 0 0 0 0-1 0l-36 0c-9 0-16-7-16-16 0 0 0 0 0-1 0-9 7-16 17-16 0 0 1 0 1 0l0-132-65 0 0 132c9-1 17 5 19 15 0 0 0 1 0 1 0 9-7 17-16 17 0 0 0 0-1 0l-37 0c-9 0-16-7-16-16 0 0 0 0 0-1 0-9 7-16 16-16 1 0 2 0 2 0l0-132-38 0 0-33 392 0 0 33-38 0 0 132c9-1 17 5 18 15 0 0 0 1 0 1 1 9-6 17-15 17 0 0-1 0-1 0z m108-272l-462 0 0 32 462 0z"/>
<glyph glyph-name="bell" unicode="&#57352;" d="M411 180l0 91c0 63-39 120-99 143 4 9 6 18 6 27-1 34-29 61-63 61 0 0 0 0 0 0-33 0-60-26-61-58 0-1 0-2 0-3 1-9 3-18 6-27-59-23-98-80-99-143l0-91c0-22-17-40-40-41 0 0-1 0-1 0l0-44 392 0 0 44c-20-2-39 13-41 34 0 2 0 5 0 7z m-170 261c1 9 8 16 16 17 9-1 16-8 17-17-1-9-10-17-19-16-11 0-14 8-14 16z m-93-261l0 91c0 61 49 110 109 110 61 0 110-49 110-110l0-91c-1-14 3-29 11-41l-241 0c6 13 10 27 11 41z m60-123c-9-1-16 6-17 15 0 0 0 1 0 1l-43 0c0-34 28-63 63-63 34 1 62 29 63 63l-47 0c-1-9-9-17-19-16z"/>
<glyph glyph-name="calculator" unicode="&#57353;" d="M438 467l0-421c1-9-6-17-15-17-1 0-1 0-1 0l-332 0c-8 0-16 7-16 16 0 0 0 0 0 1l0 421c0 8 7 16 16 16 0 0 0 0 0 0l332 0c9 0 16-7 16-16 0 0 0 0 0 0z m-33-405l0 388-298 0 0-388z m-36 344l0-96-225 0 0 96z m-25-24l-176 0 0-46 175 0 0 46z m-178-243c11 0 20-9 20-20 0-11-9-20-20-20-11 0-20 9-20 20 0 11 9 20 20 20z m60 0c11 0 20-9 20-20 0-11-9-20-20-20-11 0-20 9-20 20 0 11 9 19 20 20z m120 0c11 0 20-9 20-20 0-11-9-20-20-20-11 0-20 9-20 20 1 11 9 19 20 20z m-60 0c-11 0-20-9-20-20 0-11 9-20 20-20 11 0 20 9 20 20 0 11-8 20-19 20-1 0-1 0-1 0z m-120 66c11 0 20-9 20-20 0-11-9-20-20-20-11 0-20 9-20 20 0 11 9 20 20 20 0 0 0 0 0 0z m60 0c11 0 20-9 20-20 0-11-9-20-20-20-11 0-20 9-20 20 0 11 9 20 20 20 0 0 0 0 0 0z m120 0c11 0 20-9 20-20 0-11-9-20-20-20-11 0-20 9-20 20 0 11 9 20 20 20 0 0 0 0 0 0z m-60 0c-11 0-20-9-20-20 0-11 9-20 20-20 11 0 20 9 20 20 1 10-7 19-18 20-1 0-1 0-2 0z m-120 67c11 0 20-9 20-20 0-11-9-20-20-20-11 0-20 9-20 20 0 11 9 20 20 20z m60 0c11 0 20-9 20-20 0-11-9-20-20-20-11 0-20 9-20 20 0 11 9 20 20 20z m120 0c11 0 20-9 20-20 0-11-9-20-20-20-11 0-20 9-20 20 1 11 9 20 20 20z m-60 0c-11 0-20-9-20-20 0-11 9-20 20-20 11 0 20 9 20 20 0 11-8 20-19 20-1 0-1 0-1 0z"/>
<glyph glyph-name="calendar" unicode="&#57354;" d="M339 504c23 2 43-16 44-39 0-1 0-2 0-3l0-15 89 0c10 0 18-8 18-17 0 0 0-1 0-1l0-404c0-9-7-17-17-17 0 0 0 0-1 0l-432 0c-10-1-18 7-18 16 0 1 0 1 0 1l0 404c0 10 7 17 17 18 0 0 0 0 1 0l89 0 0 15c-1 23 18 42 41 43 1 0 2 0 3-1 23 2 43-16 44-39 0-1 0-2 0-3l0-15 78 0 0 15c0 23 18 42 41 43 1 0 2 0 3-1z m-13-387c-11 0-21-9-21-21 0-12 10-22 21-22 12 0 22 10 22 22 0 11-10 21-21 21 0 0 0 0-1 0z m71 142c12 0 21-9 21-21 0-12-9-22-21-22-12 0-22 10-22 22 0 12 10 21 21 21 1 0 1 0 1 0z m0-71c12 0 21-10 21-22 0-12-9-21-21-21-12 0-22 9-22 21 0 11 9 21 20 22 1 0 1 0 2 0z m-140 71c-12 0-21-9-21-21 0-12 9-22 21-22 12 0 22 10 22 22-1 12-10 21-22 21z m69 0c12 0 22-9 22-21 0-12-10-22-22-22-11 0-21 10-21 22 0 12 10 21 21 21z m-69-71c-12 0-21-10-21-22 0-12 9-21 21-21 12 0 22 9 22 21 0 12-10 21-21 22 0 0-1 0-1 0z m69 0c12 0 22-10 22-22 0-12-10-21-22-21-11 0-21 9-21 21 0 12 9 21 21 22 0 0 0 0 0 0z m-138 0c12 0 21-10 21-22 0-12-9-21-21-21-12 0-21 9-21 21-1 11 8 21 19 22 1 0 1 0 2 0z m-70 0c11-1 21-11 20-22 0-12-9-21-20-21-12 0-21 10-22 21 0 12 10 21 21 22 0 0 1 0 1 0z m139-71c-12 0-21-9-21-21 0-12 9-22 21-22 12 0 22 10 22 22-1 11-10 21-22 21z m-69 0c12 0 21-9 21-21 0-12-9-22-21-22-12 0-21 10-21 22 0 11 9 21 21 21 0 0 0 0 0 0z m-70 0c11 0 21-10 20-22 0-11-9-20-20-21-12 1-22 11-21 22 0 12 9 21 21 21z m11 294l-72 0 0-86 396 0 0 86-71 0 0-15c0-23-18-42-41-42-1 0-2 0-3 0-23-2-43 16-44 39 0 1 0 2 0 3l0 15-78 0 0-15c0-23-18-42-41-42-1 0-2 0-3 0-23-2-43 16-44 39 0 1 0 2 0 3l0 15z m210 67c-8 1-16-5-16-14 0-1 0-1 0-2l0-66c-1-8 6-16 15-16 0 0 1 0 1 0 8-1 16 6 16 14 0 1 0 2 0 2l0 66c1 8-5 15-14 16 0 0-1 0-2 0z m-150-82l0 66c1 8-6 16-15 16 0 0-1 0-1 0-8 1-16-5-16-14 0-1 0-1 0-2l0-66c-1-8 5-15 14-16 0 0 1 0 2 0 8-1 16 6 16 14 0 1 0 2 0 2z m-132-108l0-246 396 0 0 246z"/>
<glyph glyph-name="chat" unicode="&#57355;" d="M256 501c-135 0-245-110-245-245 0-135 110-245 245-245 135 0 245 110 245 245 0 135-110 245-245 245z m0-457c-117 0-212 95-212 212 0 17 2 34 6 50 22 93 106 162 206 162 117 0 212-95 212-212 0-117-95-212-212-212z m-68 204c0-14-12-26-26-26-15 0-26 12-26 26 0 14 11 26 26 26 14 0 26-12 26-26z m102 0c0-14-11-26-26-26-14 0-26 12-26 26 0 14 12 26 26 26 15 0 26-12 26-26z m92 0c0-14-12-26-26-26-15 0-27 12-27 26 0 14 12 26 27 26 14 0 26-12 26-26z"/>
<glyph glyph-name="circle" unicode="&#57356;" d="M499 256c0-134-109-243-243-243-134 0-243 109-243 243 0 134 109 243 243 243 134 0 243-109 243-243z"/>
<glyph glyph-name="close" unicode="&#57357;" d="M489 443l-45 45-188-189-190 190-42-42 189-191-189-190 41-42 191 189 187-190 45 45-188 188z"/>
<glyph glyph-name="close-o" unicode="&#57358;" d="M498 476l-20 21-221-221-221 222-20-20 220-222-221-220 20-21 221 221 221-222 20 20-220 222z"/>
<glyph glyph-name="coins" unicode="&#57359;" d="M91 252c0-12 13-19 23-23 27-10 56-14 85-13l17 0c1 12 4 25 10 36-45-10-91-10-135 0z m122-59c-36-2-91 2-122 22l0-29c0-11 14-19 23-22 30-13 75-15 108-12-5 13-8 26-9 41z m19-65c-41-4-106-1-141 21l0-18c0-10 10-19 25-27 27-10 55-15 83-14 20-1 40 2 59 6-11 9-19 20-26 32z m58-55c-61-21-127-20-187 2-28 13-44 31-44 55l0 132c-26 12-41 30-41 53l0 68c0 23 16 42 44 54 30 12 63 18 95 17 33 1 65-5 95-17 28-12 44-31 44-54l0-57c71 32 154 0 186-70 32-71 0-154-71-186-39-17-83-16-121 3z m64 234c-61 0-110-49-110-109 0-60 49-109 110-109 60 0 109 49 109 109 0 60-48 109-108 109-1 0-1 0-1 0z m-300 65c31-32 175-32 206 0 15 16-7 31-20 36-26 10-55 15-83 14-28 2-57-3-83-14-12-6-34-20-20-36z m211-26c-46-30-170-30-216 0l0-31c0-10 10-17 24-24 27-10 55-15 84-14 29-2 57 3 84 14 15 7 24 15 24 24z m56-183c-14 9-26-11-14-20 10-7 21-11 32-13l0-20 24 0 0 20c12 0 24 7 32 17 3 6 5 13 5 20 0 26-21 33-42 42-13 6-27 10-27 21 0 10 12 13 21 13 8 0 16-2 24-6 6-3 13-1 16 4 3 6 1 13-5 16 0 0-1 0-1 1-7 3-14 6-22 7l0 21-23 0 0-21c-13-1-24-9-29-21-2-4-3-9-4-14 0-27 21-34 42-43 14-6 27-10 28-20 0-11-13-14-22-14-12 0-25 3-35 10z"/>
<glyph glyph-name="comments" unicode="&#57360;" d="M256 108c-31-56-90-92-155-92l-27 0c20 40 34 82 42 126-29 15-53 36-72 62-20 29-30 63-30 98 0 55 26 107 71 140 49 37 110 56 171 54 61 2 121-17 171-53 45-33 71-85 71-140 0-56-26-108-71-140-49-37-110-56-171-55z m149 307c-43 31-96 47-149 45-54 2-106-14-150-45-36-27-58-69-58-113 0-28 9-55 25-78 20-28 48-50 81-63-3-37-12-73-26-108 53 10 84 44 106 91l21 0c53-2 106 14 149 46 36 26 57 68 57 113 1 44-20 86-56 112z m-269-89l50 0 0-50-50 0z m91 0l50 0 0-50-50 0z m99 0l50 0 0-50-50 0z"/>
<glyph glyph-name="document" unicode="&#57361;" d="M55 503l0-494 402 0 0 494z m30-29l342 0 0-436-342 0z m58-73l226 0 0-29-226 0z m0-88l226 0 0-29-226 0z m0-88l226 0 0-29-226 0z m0-88l129 0 0-29-129 0z"/>
<glyph glyph-name="dollar" unicode="&#57362;" d="M268 268l162 0 0-23-162 0z m0 72l149 0 0-31-149 0z m0-123l124 0 0-24-124 0z m-22-122l248 0 0 322-476 0 0-322z m-109 31l-88 0 0 260 414 0 0-260-326 0z m24 203c9-2 18-5 26-10l-13-23c-5 3-10 6-15 7-8 2-20 2-24-7-2-5 0-11 5-14 5-4 11-7 17-9 10-4 20-10 28-17 12-11 15-28 9-43-6-13-18-23-33-25l0-24-26 0 0 23c-13 2-26 7-37 15l15 22c12-9 27-14 42-12 6 1 12 5 14 12 2 5 1 10-3 14-6 5-13 9-20 13-8 2-15 6-22 12-12 9-18 24-14 39 4 13 13 23 25 27l0 19 26 0z"/>
<glyph glyph-name="double" unicode="&#57363;" d="M361 384l-296 0 100 102-12 10-120-122 120-121 14 11-105 104 299 0z m-210-261l296 0-100-102 11-10 121 122-121 120-13-10 104-104-298 0z"/>
<glyph glyph-name="download" unicode="&#57364;" d="M442 323l-67 0 0-31 67 0c14 0 25-11 25-25 0 0 0 0 0-1l0-165c1-14-11-25-25-25 0 0 0 0 0 0l-371 0c-15 0-26 11-26 25 0 0 0 0 0 0l0 165c0 15 11 26 25 26 0 0 0 0 1 0l67 0 0 31-67 0c-32 0-57-25-57-57l0-165c0-31 25-56 57-56l371 0c31 0 56 25 56 56l0 165c0 32-25 57-56 57z m-186-171l4 4 90 90c6 6 6 16-1 22-6 6-16 6-22 0l-55-57 0 241c0 9-7 15-16 15-8 0-15-6-15-15l0-241-56 55c-6 7-16 7-23 0-6-6-6-16 0-22z"/>
<glyph glyph-name="email" unicode="&#57365;" d="M10 455l0-398 492 0 0 398z m413-47l-166-166-166 166z m-366-304l0 270 200-200 198 200 0-270z"/>
<glyph glyph-name="expire" unicode="&#57366;" d="M18 470l0-428 476 0 0 428z m43-147l102 0 0-97-102 0z m246-97l-100 0 0 97 103 0 0-97z m-144-142l-102 0 0 97 102 0z m144 0l-100 0 0 97 103 0 0-97z m144 0l-102 0 0 97 102 0z m0 142l-102 0 0 97 102 0z m-99 142l-291 0 0 60 390 0 0-60-99 0z"/>
<glyph glyph-name="handcoins" unicode="&#57367;" d="M342 180c4 11-1 24-12 29-18 6-37 7-57 4-26-2-52 4-75 17-17 10-36 15-55 14-36-2-70-16-97-40l0-129 226 0c49 1 95 18 133 48 23 20 43 42 59 67 7 10 1 20-10 22-17 4-29-13-41-22-13-11-27-20-41-28-16-37-56-35-88-33-24 3-47 0-70-8-8-3-18 1-21 10-3 8 0 17 8 21 27 10 57 14 85 10 22 0 51-1 56 18z m57 318c34 0 61-27 62-61 0 0 0-1 0-1 0-34-28-61-62-61-34 0-62 27-62 61 1 34 28 61 62 62z m0-33c-15 0-28-13-28-28 0 0 0-1 0-1-1-15 12-28 27-28 1 0 1 0 1 0 16 0 28 13 28 28 0 16-12 28-28 29z m-135-45c38 0 69-31 69-69 0-38-31-69-69-69-31 0-58 21-66 51l-7 0c-34 0-62 27-62 61-1 34 27 62 61 62 25 0 48-15 57-39 6 2 11 3 17 3z m-66-51c3 12 10 24 20 33-4 12-15 21-27 21-16 0-29-13-29-28 0-16 13-29 29-29 2 1 4 2 7 3z m66 17c-19 0-34-15-34-34 0-19 15-34 34-34 19 0 34 15 34 34 1 18-13 34-31 34-1 0-2 0-3 0z m-219-343l0-29-33 0 0 230 32 0c28 20 62 32 97 35 25 1 49-6 71-18 17-11 37-16 57-13 25 4 51 2 74-7 15-6 27-19 30-35 6 4 11 8 17 12 21 18 34 37 68 30 17-3 31-14 38-29 7-14 5-32-5-45-18-28-40-52-66-73-44-36-98-56-154-57l-226 0z"/>
<glyph glyph-name="help" unicode="&#57368;" d="M256 494c-131 0-237-107-237-238 0-131 106-237 237-237l237 0 0 237c0 131-106 237-237 238z m188-426l-188 0c-104 1-187 85-188 188 1 104 84 187 188 188 104-1 187-84 188-188z m-303 213l49 0 0-49-49 0z m90 0l50 0 0-49-50 0z m99 0l49 0 0-49-49 0z"/>
<glyph glyph-name="icon-minus" unicode="&#57369;" d="M5 276l502 0 0-40-502 0z"/>
<glyph glyph-name="in-progress" unicode="&#57370;" d="M482 295l-27-28c-6 105-92 188-198 188-76 0-142-43-176-105 8-4 16-8 24-12 30 54 86 90 152 90 89 0 163-69 171-156l-21 26-24-19 58-62 62 58z m-78-130c-31-49-85-82-147-82-92 0-167 71-173 161l25-29 23 19-59 61-60-58 21-20 24 26c6-104 93-187 199-187 74 0 138 41 173 101-9 3-18 6-26 8z"/>
<glyph glyph-name="inc-child" unicode="&#57371;" d="M408 128c-27 0-49-22-49-49 0-27 22-49 49-49 27 0 49 22 49 49 0 27-22 49-49 49z m0-76c-14 0-26 12-26 27 0 14 12 26 26 26 15 0 27-12 27-26 0-15-12-27-27-27z m-223 76c-27 0-49-22-49-49 0-27 22-49 49-49 26 0 48 22 48 49 0 27-22 49-48 49z m0-76c-15 0-27 12-27 27 0 14 12 26 27 26 14 0 26-12 26-26 0-15-12-27-26-27z m166 428l-3 0c-14 0-26-9-30-24l-21-124-179 0-19 57-44 0 0-23 28 0 15-46 0-86c0-51 41-92 92-92l165 0c67 0 121 54 121 120l0 75c0 71-54 133-125 143z m102-218c0-54-44-98-98-98l-165 0c-38 0-69 32-69 70l0 76 332 0z m0 72l-133 0 20 118c1 3 4 6 8 6 60-8 105-61 105-121z"/>
<glyph glyph-name="inc-dividend" unicode="&#57372;" d="M139 258l-93 0c-7 0-12-5-12-11l0-206c0-6 5-11 12-11l93 0c6 0 11 5 11 11l0 206c0 6-5 11-11 11z m-11-206l-71 0 0 184 71 0z m178 308l-93 0c-6 0-11-5-11-11l0-308c0-6 5-11 11-11l93 0c6 0 11 5 11 11l0 308c0 6-5 11-11 11z m-11-308l-71 0 0 286 71 0z m179 429l-93 0c-7 0-12-5-12-11l0-430c0-6 5-11 12-11l93 0c6 0 11 5 11 11l0 430c0 6-5 11-11 11z m-11-430l-71 0 0 408 71 0z"/>
<glyph glyph-name="inc-emp" unicode="&#57373;" d="M464 398l-100 0-1 57c2 14-9 26-24 27l-3 0-153 0c-13 0-24-10-25-24 0 0 0-2 0-3l0-57-100 0c-23 0-42-19-42-42l0-284c0-23 19-42 42-42l404 0c0 0 1 0 1 0 23 1 42 19 43 42l0 284c0 23-19 42-42 42z m-279 62l151 0 2 0c1 0 3-1 3-5l0-55-161 0 0 56c0 2 2 4 5 4z m-127-84l406 0c11 0 19-9 19-20l0-25-30-32c-17-17-39-31-63-39l-67-21 0 5c0 6-2 11-4 16-4 8-11 13-21 15 0 0 0 0 0 0-1 0-2 0-4 0 0 0 0 0 0 0l-70 0c-1 0-3 0-3 0-14-1-25-13-24-26l0-9-65 20c-23 7-45 21-63 39l-31 32 0 25c0 11 9 20 20 20z m161-177l0 51c0 2 2 3 5 3l72 0c1 0 3-2 3-4l0-51c0-2-2-3-5-4l-71 0 0 0 0 0c-2 0-4 2-4 5z m243-147l-404 0c-11 0-20 9-20 20l0 227 14-15c21-22 47-37 74-45l71-22 0-18c0 0 0-3 0-3 1-13 11-23 24-24l0 0 1 0c0 0 0 0 1 0l0 0 71 0c1 0 3 0 3 0 15 1 25 13 24 27l0 16 76 24c28 9 52 25 72 45l14 15 0-227c0-11-9-20-21-20z"/>
<glyph glyph-name="inc-mpay" unicode="&#57374;" d="M269 27c-2 0-4 0-6 2l-110 83c-48 47-75 112-75 178l0 133c0 11 6 22 18 27 111 45 220 44 325-1 12-2 22-15 21-30l0-136c0-62-23-123-66-170l-99-84c-2-2-5-2-8-2z m-10 434c-51 0-103-10-155-31-1-1-4-3-4-7l0-133c0-60 25-119 68-161l101-77 92 77c37 42 59 97 59 154l0 137c0 4-2 7-6 8-52 22-104 33-155 33z m-3-88l30-67 59 0-45-45 16-59-60 44-52-44 14 59-44 45 60 0z"/>
<glyph glyph-name="inc-other" unicode="&#57375;" d="M400 481l-206 0c-3 0-6-1-8-3l-93-93c-2-2-3-5-3-8l0-318c0-17 13-30 29-30l282 0c1 0 1 0 1 0 16 1 28 14 28 30l0 392c0 17-14 30-30 30z m-217-39l0-48c0-4-4-7-8-7l-46 0z m225-383c0-4-4-8-7-8l0-11-1 11-281 0c-4 0-7 3-7 8l0 305 63 0c17 0 30 14 30 30l0 65 195 0c4 0 8-3 8-8z m-64 198l-150 0c-6 0-11-5-11-11 0-6 5-11 11-11l150 0c6 0 11 5 11 11 0 6-5 11-11 11z m0-94l-150 0c-6 0-11-5-11-11 0-6 5-11 11-11l150 0c6 0 11 5 11 11 0 6-5 11-11 11z"/>
<glyph glyph-name="inc-rental" unicode="&#57376;" d="M485 292l-37 38c0 0-1 0-1 0 0 0 0 1 0 1l-181 150c-4 3-10 3-14 0l-180-150c0 0 0-1 0-1 0 0 0 0 0 0l-38-38c-4-4-4-11 0-15 2-2 5-4 8-4 3 0 6 2 8 4l18 18 0-257c0-6 5-11 12-11l112 0c0 0 0 0 0 0l133 0c0 0 0 0 0 0l115 0c6 0 11 5 11 11l0 257 19-18c2-2 5-4 7-4 3 0 6 2 8 4 5 4 5 11 0 15z m-171-243l-111 0 0 148c0 11 9 19 20 19l72 0c11 0 19-8 20-19z m115 0l-93 0 1 149c-1 23-19 41-42 41l-73 0c-23-1-41-19-41-42l0-148-90 0 0 268 168 141 170-141z"/>
<glyph glyph-name="inc-selfemp" unicode="&#57377;" d="M374 239c33 0 61 27 61 61 0 33-28 61-61 61-34 0-61-28-61-61 0-34 27-61 61-61z m0 100c21 0 38-18 38-39 0-22-17-39-38-39-22 0-39 17-39 39 0 21 17 39 39 39z m-163 22c34 0 61 28 61 61 0 34-27 61-61 61-34 0-61-27-61-61 0-33 27-61 61-61z m0 100c21 0 39-17 39-39 0-21-18-39-39-39-21 0-39 18-39 39 0 22 18 39 39 39z m278-291c-17 17-40 23-62 19-23-4-78-25-104-36-6 46-36 77-80 79l-86 0c-38 24-72 37-104 39 0 0-2 0-3 0-16-1-30-15-30-32l1-109c-2-12 6-24 17-30l139-65c11-5 23-8 35-8 9 0 18 1 27 4l240 87c4 1 8 4 13 9 5 6 8 14 7 22-1 9-5 17-10 21z m-14-28c-1-2-3-3-4-3l-239-87c-16-5-32-4-45 3l-140 66c-3 1-5 4-4 8l0 110c0 5 4 9 9 9 29-1 60-13 95-37 2-1 4-1 6-1l89 0c33-2 55-26 59-62l-151 0c-6 0-11-5-11-11 0-6 5-11 11-11l163 0c0 0 1 0 2 0 1 0 2 1 2 1 5 2 86 36 114 40 15 3 31-2 42-13 2-2 3-4 4-7 0-2-1-4-2-5z"/>
<glyph glyph-name="inc-ssecurity" unicode="&#57378;" d="M478 310c6 0 11 5 11 11l0 23c0 14-9 26-22 30l-197 108c-6 2-13 2-20 0-1 0-1 0-2-1l-196-107c-13-4-22-16-22-30l0-23c0-6 5-11 11-11l26 0 0-204-26 0c-6 0-11-5-11-11l0-42c0-1 0-3 0-3 1-13 12-23 25-23l0 22c-1 0-2 1-3 4l0 31 414 0 0-30c0-3-1-5-4-5l-407 0 0-11 1-11 406 0c14 0 25 11 27 26l0 42c0 6-5 11-12 11l-27 0 0 204z m-426 34c0 4 3 7 7 8 1 0 2 1 3 1l195 108c1 0 2 0 3 0 1 0 2 0 1 0l197-108c1 0 2-1 3-1 4-1 6-4 6-8l0-12-415 0z m167-34l0-204-73 0 0 204z m22 0l34 0 0-204-34 0z m56 0l73 0 0-204-73 0z m-208 0l35 0 0-204-35 0z m338-204l-34 0 0 204 34 0z"/>
<glyph glyph-name="info" unicode="&#57379;" d="M256 498c-133 0-242-108-242-242 0-133 109-242 242-242 133 0 242 109 242 242 0 134-109 242-242 242z m0-444c-112 0-202 90-202 202 0 112 90 202 202 202 112 0 202-90 202-202 0-112-90-202-202-202z m-25 248l51 0 0-182-51 0z m0 72l51 0 0-52-51 0z"/>
<glyph glyph-name="invite" unicode="&#57380;" d="M424 136l0-80-416 0 0 320 80 0 0 80 416 0 0-320z m-111 64c-24-16-56-16-80 0-21-5-39-6-44-32l169 0c-4 26-23 27-45 32z m-13 67c20 17 28 44 21 70-6 21-26 35-47 33-22 2-42-12-48-33-6-25 1-52 20-70 4-4 6-9 7-14l0-37c13-6 27-6 40 0l0 37c1 5 3 10 7 14z m-145-99c4 48 27 54 65 62l0 17c-25 27-34 64-25 99 9 35 42 59 79 57 36 2 69-22 78-57 9-35 0-72-25-99l0-16c37-8 60-14 65-61l79 0 0 254-351 0 0-254 35 0z m-67 176l-46 0 0-254 349 0 0 46-303 0z"/>
<glyph glyph-name="line-bar" unicode="&#57381;" d="M29 463l454 0 0-59-454 0z m0-118l454 0 0-60-454 0z m0-119l454 0 0-59-454 0z m0-119l454 0 0-59-454 0z"/>
<glyph glyph-name="location" unicode="&#57382;" d="M263 503c-2 0-5 0-7 0-104 0-189-85-189-189 0-130 189-305 189-305 0 0 189 175 189 305 2 102-79 187-182 189z m151-192c0-112-158-262-158-262 0 0-158 150-158 262 0 89 70 162 158 162 2 0 4 0 6 0 86-2 154-75 152-162z m-158 98c-53 0-95-42-95-95 0-53 42-96 95-96 53 0 95 43 95 96 0 53-42 95-95 95z m0-163c-38 0-68 30-68 68 0 38 30 68 68 68 38 0 68-30 68-68 0-38-30-68-68-68z"/>
<glyph glyph-name="lock" unicode="&#57383;" d="M272 141l0-49-32 0 0 49c-11 5-18 17-18 30 0 20 16 35 35 35 20 0 35-15 35-35-1-13-8-24-20-30z m-178 133l0 59c0 101 63 162 162 162 100 0 162-61 162-162l0-59c24-7 41-29 41-54l0-146c0-31-26-57-57-57l-292 0c-31 0-56 26-56 57l0 146c0 25 16 47 40 54z m219 3l0 56c2 29-19 54-48 57-3 0-6 0-9 0-29 2-54-19-56-48-1-3-1-6 0-9l0-57z m-186 56l0-57 41 0 0 57c-2 47 34 86 80 88 3 0 5 0 8 0 47 3 86-33 88-80 1-3 1-5 0-8l0-57 41 0 0 57c0 82-47 129-129 129-81 0-129-46-129-129z m274-88l-291 0c-14 0-25-11-25-25l0-146c0-14 11-25 25-25l291 0c14 0 25 11 25 25l0 146c1 13-10 24-23 25 0 0-1 0-2 0z"/>
<glyph glyph-name="lockopen" unicode="&#57384;" d="M449 201c-3 24-21 44-46 48l0 100c0 96-58 155-153 155-94 0-151-56-154-148l0-29 99 0 0 22c-2 28 18 52 45 54 3 1 6 1 9 0 27 3 52-18 54-45 0-3 0-6 0-9l0-100-186 0c-28 0-51-22-54-50l0-141c3-28 26-49 54-50l278 0c28 1 51 22 54 50l0 143z m-199 234c-44 2-82-33-84-77 0-1 0-1 0-2l-39 0c2 74 46 118 123 118 78 0 123-46 123-123l0-101-39 0 0 100c2 45-32 83-76 85-3 0-5 0-8 0z m145-394l-278 0c-13 0-23 11-23 24l0 130c0 13 10 24 23 24l278 0c13 0 23-11 23-24l0-130c1-13-9-24-21-24-1 0-2 0-2 0z m-143 146c-18 0-33-15-33-34 0-12 6-23 17-29l0-46 30 0 0 46c11 5 18 17 17 29 2 17-10 32-27 33-1 0-3 1-4 1z"/>
<glyph glyph-name="locksm" unicode="&#57385;" d="M381 275l0 105c0 68-55 124-124 124 0 0 0 0 0 0-69 0-125-55-126-124l0-105 53 0 0 105c0 39 32 70 71 71 0 0 0 0 0 0 39-1 70-32 71-71l0-105-248 0 0-267 356 0 0 267z m0-214l-250 0 0 161 250 0z"/>
<glyph glyph-name="locksmopen" unicode="&#57386;" d="M377 275l0 102c0 66-53 120-120 120 0 0 0 0 0 0-67 0-122-53-123-120l52 0c0 37 31 68 69 68 0 0 0 0 0 0 38 0 68-31 69-68l0-102-241 0 0-260 346 0 0 260z m0-208l-243 0 0 156 243 0 0-156z"/>
<glyph glyph-name="message" unicode="&#57387;" d="M256 108c-31-56-90-92-155-92l-27 0c20 40 34 82 42 126-29 15-53 36-72 62-20 29-30 63-30 98 0 55 26 107 71 140 49 37 110 56 171 54 61 2 121-17 171-53 45-33 71-85 71-140 0-56-26-108-71-140-49-37-110-56-171-55z m149 307c-43 31-96 47-149 45-54 2-106-14-150-45-36-27-58-69-58-113 0-28 9-55 25-78 20-28 48-50 81-63-3-37-12-73-26-108 53 10 84 44 106 91l21 0c53-2 106 14 149 46 36 26 57 68 57 113 1 44-20 86-56 112z"/>
<glyph glyph-name="message2" unicode="&#57388;" d="M454 504c27 0 50-23 50-50l0-297c0-27-23-50-50-50l-347 0-99-99 0 446c0 27 23 50 50 50l396 0m-396-50l0-326 29 29 367 0 0 297-396 0m49-74l298 0 0-50-298 0 0 50m0-99l223 0 0-50-223 0z"/>
<glyph glyph-name="messages" unicode="&#57389;" d="M304 479c96 0 193-53 193-160 1-47-23-92-63-117 5-40 20-71 36-107l-25 0c-49 0-95 13-129 47-32-32-81-46-124-47-30-45-76-62-128-62l-27 0c15 29 26 60 32 92-34 22-55 60-55 100 0 63 42 107 98 127 20 87 110 127 192 127z m-9-310c-90 2-182 46-184 147-37-17-62-47-62-90 0-42 21-63 55-83-1-25-6-50-15-74 42 5 64 24 84 59 39-1 92 8 122 41z m-152 157c-3-96 89-125 169-125 11 36-2 75-32 98-37 30-92 36-137 27z m7 35c53 8 107-5 151-36 47-37 61-102 34-155 23-23 52-38 84-40-11 29-17 59-19 90 41 23 65 50 65 101 0 87-84 126-161 126-61 0-132-25-154-86z"/>
<glyph glyph-name="mobile" unicode="&#57390;" d="M204 503l105 0c68 0 108-41 108-108l0-278c0-68-41-108-108-108l-105 0c-69 0-109 41-109 108l0 278c0 67 41 108 109 108z m26-404l47 0c8 0 14-6 14-13 0-8-6-14-14-14l-47 0c-7-1-14 5-14 13-1 7 5 14 13 14 0 0 1 0 1 0z m-93 336l239 0c-12 26-38 34-66 34l-106 0c-28 0-55-8-67-34z m246-25l-253 0c0-4-1-10-1-15l0-246 256 0 0 246c0 5-2 11-2 15z m2-285l-256 0 0-9c0-49 25-74 75-74l105 0c49 0 74 25 74 74l0 9z"/>
<glyph glyph-name="mobile2" unicode="&#57391;" d="M378 116l-244 0 0 326 244 0m-75-395l-94 0 0 23 94 0m46 442l-186 0c-39 0-70-31-70-70l0-372c0-39 31-70 70-70l186 0c39 0 70 31 70 70l0 372c0 39-31 70-70 70z"/>
<glyph glyph-name="next" unicode="&#57392;" d="M17 246l319 0-108-109 13-12 130 132-130 130-15-12 113-111-322 0z m446 11l-111-120 13-12 130 132-130 130-15-12z"/>
<glyph glyph-name="no-user" unicode="&#57393;" d="M339 137c0 39-16 40-48 48-6-5-13-8-20-10l0-46-33 0 0 46c-8 2-14 5-20 10-32-8-48-9-48-48l0-109c27-10 56-15 86-15 29 0 57 5 83 14l0 110z m-83 362c-134 0-243-109-243-243 0-91 50-171 124-212l0 93c0 62 24 69 65 78l0 15c-25 27-34 63-26 98 10 37 41 57 79 57 37 0 68-20 77-56 10-35 0-72-25-98l0-16c41-9 65-16 65-78l0-95c76 41 127 121 127 214 0 134-109 243-243 243z m19-296l0 35c0 5 2 10 6 13 19 15 27 45 21 69-7 22-24 32-47 32-23 0-41-10-47-32-6-23 2-54 20-68 4-4 7-9 7-14l0-35c12-8 28-8 40 0z"/>
<glyph glyph-name="no-user2" unicode="&#57394;" d="M332 272l0 22c37 37 51 89 37 138-14 52-58 80-112 80-55 0-100-28-114-81-13-49 1-101 36-138l0-22c-59-12-94-21-94-109l0-162 49 0 0 162c0 55 23 56 69 67 8-7 18-12 29-14l0-64 48 0 0 64c11 3 20 7 29 14 46-10 69-12 69-67l0-162 48 0 0 162c0 87-34 97-94 110z m-36 52c-6-4-9-11-9-18l0-49c-18-11-41-11-58 0l0 49c0 8-4 15-11 19-26 21-37 64-28 96 7 25 37 46 68 46 33 0 58-14 67-46 10-35-2-72-29-97z"/>
<glyph glyph-name="notes" unicode="&#57395;" d="M450 421l0-393c1-8-6-15-15-15 0 0 0 0 0 0l-358 0c-8 0-15 6-15 15 0 0 0 0 0 0l0 393c-1 9 6 16 15 16 0 0 0 0 0 0l75 0c3 25 18 62 48 62 30 0 45-37 48-62l15 0c4 25 19 62 49 62 30 0 45-37 48-62l75 0c8 0 15-7 15-16z m-357-293l325 0 0 58-325 0z m325-23l-325 0 0-61 325 0z m-325 105l325 0 0 58-325 0z m0 81l325 0 0 114-132 0c1-15 7-29 18-40 2 1 5 1 7 1 8 0 15-7 15-15 0-9-7-16-15-16-5 0-10 2-12 7-24 10-34 40-36 63l-88 0c1-15 8-29 18-40 2 1 5 1 7 1 9 0 16-7 16-15 0-9-7-16-16-16-5 0-10 2-12 7-24 10-34 40-36 63l-59 0z m194 146l48 0c-2 11-10 39-24 39-14 0-22-28-24-39z m-112 0l50 0c-3 11-10 39-25 39-14 0-22-28-25-39z"/>
<glyph glyph-name="notes2" unicode="&#57396;" d="M68 371l117 117c2 3 6 4 10 4l176 0c8 0 15-6 15-15 0 0 0 0 0 0l0-47 47 0c8 0 15-6 15-15 0 0 0 0 0 0l0-380c0-8-6-15-14-15-1 0-1 0-1 0l-292 0c-8 0-15 6-15 15 0 0 0 0 0 0l0 47-47 0c-8 0-15 7-15 15 0 0 0 0 0 1l0 262c0 4 1 8 4 11z m172 1l70 0 0-23-70 0z m-98-59l168 0 0-23-168 0z m0-57l168 0 0-23-168 0z m0-58l98 0 0-23-98 0z m65 264l0-102c0-6-5-12-12-12l-101 0 0-235 261 0 0 349z m-94-90l71 0 0 71z m273 27l0-301c0-9-6-16-14-16-1 0-1 0-1 0l-215 0 0-30 261 0 0 347z"/>
<glyph glyph-name="phone" unicode="&#57397;" d="M309 134c27-17 50-40 67-67 2-2-56-33-88-18-1 0-2 0-2 1 0 0 0 0 0 0-42 27-88 84-125 148-29 51-62 124-66 184l0 1c10 28 29 52 54 68l6 0c16-30 24-62 26-96 0-1 0-1-15-22-9-17-9-36 0-53l68-118c10-16 27-26 46-25l14 1c6 1 11 0 15-4z m-133 329l28 5c13 3 27-36 29-45 2-9 10-50-2-55-25-9-28-7-28-5-1 35-11 69-27 100z m145-306l21 18c10 8 41-18 49-26 7-7 33-38 25-48l-16-18c-1-2-51 56-79 74z m-60 21l-68 118c-4 9-2 19 6 25l43 16c19 7 27 29 27 54 0 26-7 53-20 76-13 22-31 37-51 32l-44-8c-3 0-6-2-9-3-19-11-36-26-51-43-33-33-31-59-31-60 1-65 39-147 71-203 40-69 92-132 139-162 1-1 3-2 5-2 33-22 132 25 133 26 7 8 14 15 21 23 25 35 18 56 7 74-14 23-33 42-56 56-21 13-44 16-60 2l-36-29c-10-4-26 8-26 8z"/>
<glyph glyph-name="plus" unicode="&#57398;" d="M498 276l-222 0 0 222-40 0 0-222-222 0 0-40 222 0 0-222 40 0 0 222 222 0z"/>
<glyph glyph-name="prev" unicode="&#57399;" d="M495 266l-319 0 108 109-13 12-130-132 130-130 15 12-113 111 322 0z m-446-11l111 120-13 12-130-132 130-130 15 12z"/>
<glyph glyph-name="purchase" unicode="&#57400;" d="M252 330l0-20c-26-3-39-23-41-42-3-25 13-54 47-61 22-4 31-22 30-37-1-5-4-22-28-22-28 0-30 15-30 19 0 6-5 10-11 10-6 0-11-5-11-11 0-13 10-37 44-40l0-19c0-6 5-11 12-11 6 0 11 5 11 11l0 20c22 6 33 24 35 41 3 25-13 54-47 61-22 4-32 22-30 37 0 5 4 23 28 23 11 1 20-7 21-16l0-3c0-6 5-11 11-11 6 0 11 5 11 11l0 3c-2 18-14 32-29 36l0 21c0 6-5 11-11 11-7 0-12-5-12-11z m231-38l-37 37c0 0-1 0-1 0 0 0 0 1 0 1l-179 149c-4 3-10 3-14 0l-176-148c-1-1-2-1-2-2l-37-37c-5-4-5-11 0-16 2-2 5-3 8-3 2 0 5 1 7 3l19 19 0-255c0-6 5-11 11-11l356 0c6 0 11 5 11 11l0 254 18-18c2-2 5-3 8-3 3 0 6 1 8 3 4 5 4 12 0 16z m-56-241l-334 0 0 265 166 140 168-140z"/>
<glyph glyph-name="question" unicode="&#57401;" d="M233 156l49 0 0-49-49 0z m23 349c-138 0-249-111-249-249 0-138 111-249 249-249 138 0 249 111 249 249 0 138-111 249-249 249z m0-453c-113 0-204 91-204 204 0 113 91 204 204 204 113 0 204-91 204-204 0-113-91-204-204-204z m98 277c-12 54-66 87-120 74-45-11-76-51-76-97l50 0c2 27 26 48 54 45 27-2 48-26 45-54-5-24-27-42-52-41-12 0-22-10-22-22l0-53 49 0 0 29c53 13 85 67 72 119z"/>
<glyph glyph-name="quote" unicode="&#57402;" d="M26 356l139 139c3 3 7 5 12 5l210 0c10 0 18-8 18-18l0-74c11-3 21-8 30-14 16-11 30-25 41-41 16-24 22-50 5-68l-76-75 0-180c1-10-7-17-16-18 0 0-1 0-1 0l-350 0c-9 0-17 8-17 17 0 0 0 0 0 1l0 313c0 5 2 9 5 13z m340-47c-8 6-16 11-25 15l-96-97-18-68c5-5 10-10 15-15l68 18 95 96c-3 9-8 17-15 25l-89-90c-7-6-18-6-25 1-6 7-6 17 0 24z m2 41c26-16 48-38 63-65l25 25c3 3-1 12-8 24-9 12-20 23-33 32-6 5-14 8-22 8l-25-24z m1 51l0 64-178 0 0-122c0-7-6-13-14-13l-122 0 0-283 314 0 0 127-38-39c-3-2-6-4-9-5l-120-32c-9-3-19 3-22 12 0 3 0 7 1 10l32 121c1 3 3 6 5 8l151 152z m-204 43l-88-88 88 0z"/>
<glyph glyph-name="refinance" unicode="&#57403;" d="M56 255c0 112 92 204 204 205 1 0 1 0 2 0 76 0 144-43 179-111l-78 0c-6 0-11-5-11-11 0-6 5-11 11-11l93 0c6 0 11 5 11 11l0 2c1 2 1 4 0 6l0 85c0 6-5 11-11 11-6 0-11-5-11-11l0-45c-42 59-109 96-183 96-1 0-1 0-2 0-125-1-227-102-227-227 0-6 5-11 12-11 6 0 11 5 11 11z m419 11c-6 1-11-5-11-11-1-113-93-205-205-205-75 1-144 43-179 109l76 0c6 0 11 5 11 11 0 6-5 11-11 11l-93 0c-6 0-11-5-11-11l0-94c0-6 5-11 11-11 6 0 11 5 11 11l0 50c42-60 111-97 185-98 124 0 226 102 227 227 0 6-5 11-11 11z m-212-133c6 0 11 4 11 11l0 20c22 5 34 23 35 41 3 25-13 53-47 60-22 5-31 22-30 37 1 6 4 23 29 23 10 1 19-7 20-16l0-3c0-6 5-11 11-11 6 0 11 5 11 11l0 4c-1 17-13 31-29 35l0 21c0 6-5 11-11 11-6 0-11-5-11-11l0-20c-26-3-40-22-42-42-3-25 13-54 48-61 21-4 31-21 29-36 0-6-4-23-27-23-28 0-31 16-31 19 0 6-5 11-11 11-6 0-11-5-11-11 0-14 10-37 45-41l0-18c0-6 5-11 11-11z"/>
<glyph glyph-name="s1a" unicode="&#57404;" d="M256 499c-134 0-243-109-243-243 0-134 109-243 243-243 134 0 243 109 243 243 0 134-109 243-243 243z m162-296l-109 0 0-109-106 0 0 109-109 0 0 106 109 0 0 109 106 0 0-109 109 0z"/>
<glyph glyph-name="s1b" unicode="&#57405;" d="M208 254c-10 12-19 24-26 37-5 8-8 18-7 27 0 1 1 2 1 2 2 5 7 12 24 8 23-5 32-24 44-23l1 0c9 3 7 12 1 20-27 42-78 64-128 56-15-5-31-3-45 4-14 6-32-10-53-38-15-20-17-34-6-61 13-27 27-52 42-77l2-2 29-49c6-7 12-17 22-14 9 3 4 21 0 29l-23 48 1 1c0 0 1 0 2 0l61-91c4-6 12-8 18-4 6 4 8 12 4 18l-53 94c1 1 2 1 3 2 1 0 1 0 2 0l80-97c5-6 14-8 20-3 6 5 7 14 2 20l-74 100c1 2 1 3 2 4 1 0 1 1 1 1 0 0 0 0 0 0l1 0c9-12 19-23 30-34 19-20 46-43 46-43 6-6 15-6 21 0 5 5 5 14 0 20-16 14-32 29-45 45z m284 93c-21 29-39 45-53 38-14-6-30-8-45-4-50 9-101-13-128-56-5-7-8-17 1-20l1 0c12 0 21 19 45 24 16 4 22-3 24-8 0-1 0-1 0-2 1-10-2-20-7-28-8-13-16-25-26-37-13-16-28-31-44-44-6-6-5-16 1-21 0 0 0 0 0 0 6-5 15-5 20 1 0 0 27 22 47 43 11 12 22 25 29 34l1 0c1 0 1-1 1-1 0 0 0 0 0 0 1-1 2-3 2-4l-74-100c-5-7-4-16 2-21 0 0 0 0 0 0 7-4 16-3 20 3l79 98c1 0 1 0 2 0 1-1 2-2 3-2l-53-94c-4-6-2-14 4-18 6-4 14-2 18 4l60 91c1 0 2 0 3 0l1-1-23-48c-4-8-9-26 0-29 10-3 16 7 22 14l29 49 1 2c16 25 30 51 42 77 12 26 10 41-5 60z"/>
<glyph glyph-name="s1c" unicode="&#57406;" d="M488 405l-93 96-279 0-93-96 0-368c0-14 12-26 26-26 0 0 0 0 0 0l414 0c14 0 26 12 26 26 0 0 0 0 0 0l0 368z m-344 61l223 0 65-61-350 0z m298-409l-373 0 0 302 373 0z m-289 55c21-1 42 7 57 21-31 7-54 25-54 48 0 6 2 12 5 18l-8 0c-37 0-66-20-66-43 0-24 29-44 66-44z m146 81c0 24-29 44-66 44-37 0-67-20-67-44 0-24 30-43 67-43 37 0 66 19 66 43z m125-55c0 23-29 43-66 43-37 0-67-20-67-43 0-24 30-44 67-44 37 0 66 20 66 44z m-102 310l-133 0-21-23 174 0z"/>
<glyph glyph-name="s1d" unicode="&#57407;" d="M390 222c-48-15-44-22-91-40-24-9-52-16-71 5-5 17 5 19 36 40 35 24 40 43 30 56-10 13-27 7-45-5-46-33-98-58-154-73l-1 0 0-122c1 0 3 0 4 0 74-4 170 2 170 2 10 0 21 3 29 10 0 0 73 70 110 89 38 19 36 19 37 26 4 12-25 21-54 12z m-326 5l-57 0 0-163 56 0c0 0 13 2 13 12 1 32 0 125 0 137 0 7-5 12-12 14z m393 220c-49 9-63-40-63-40 0 0-14 49-62 40-30-5-51-31-49-60-1-77 111-132 111-132 0 0 111 55 111 132 2 29-19 55-48 60z"/>
<glyph glyph-name="s1e" unicode="&#57408;" d="M443 288l-38 0 31-108-78-22c11 22 14 48 7 71-4 15-12 29-22 40-18-8-35-17-51-27l-8-13-1 0c-2 1-4 2-6 3-2-2-5-4-8-6-3-1-5-3-8-5 1 0 1 0 1 0 4-2 8-3 12-3 7-1 15-2 22-4 4-2 8-5 11-8 3-4 6-8 7-13 2-5 2-10 1-15-1-4-2-8-5-12-3-4-7-7-11-9l5-17-15-4-5 16c-5-1-10-1-15 1-6 1-12 4-18 7l-2 0 10 18 1-1c7-5 16-7 24-5 4 1 6 3 8 5 1 3 2 6 1 9 0 2-2 4-4 6-3 2-7 3-11 3-8 1-16 3-23 5-4 2-8 4-12 7-1 1-1 3-2 4-5-1-10-2-15-2-12 0-24 5-32 15-4 6-7 12-8 20-22-45-5-99 37-125l-68-20-37 128 68 19 0 10c2 13 9 25 18 34l-123-36c-4-1-7-6-5-10l51-182c1-2 3-4 5-5 2-1 4-1 6 0l336 96c4 1 7 6 6 10z m-392-24c4 8 12 14 21 17l199 57c2-1 4-3 5-5 6-16-4-18-36-40-34-23-41-42-30-55 10-13 28-7 45 5 46 33 98 58 153 72l2 0 0 122c-2 1-3 1-4 1-74 4-168-2-168-2-11 1-21-3-30-9-29-29-61-56-94-80l-92-4c-5 0-8-4-8-9 0 0 0 0 0 0l8-188c0-5 4-9 9-9 0 0 0 0 0 0l44 2-28 97c-2 10-1 20 4 28z m390 192c0 0-12-2-12-11-1-32 0-125 0-136-1-7 5-14 12-15l57 0 0 162z"/>
<glyph glyph-name="s1f" unicode="&#57409;" d="M419 341c-4 4-12 4-16 0-5-5-4-12 0-17 0 0 0 0 1 0 23-22 25-59 3-83-1-1-2-2-3-3-5-4-5-12-1-16 0 0 0 0 0 0 2-3 5-4 8-4 3 0 6 1 8 3 17 15 26 37 26 60 1 23-9 45-26 60z m40 37c-6 5-14 5-19 0-5-5-5-14 0-19 43-39 46-106 6-149-2-2-3-4-6-6-5-5-5-13 0-19 2-3 6-4 10-4 3 0 6 1 9 4 53 49 56 133 7 186-2 3-5 5-7 8z m-130 80c-10 7-23 7-33 0-35-26-75-45-118-57-66-20-122-38-122-38-13-5-25-13-34-23 0 0-11-12-11-59 0-47 11-59 11-59 10-10 22-16 35-19 0 0 16-3 42-9l23-125c2-11 13-20 25-20l15 0c11 0 21 9 21 21l0 98c41-15 80-36 114-63 9-8 22-8 32-1 0 0 47 39 47 176 0 139-47 178-47 178z m-17-316c-14 0-27 34-33 83 14 2 26 7 37 16 22 16 26 48 10 70-3 4-7 7-10 10-11 8-23 14-37 16 6 49 19 83 33 83 20 0 36-62 36-139 0-77-16-139-36-139z"/>
<glyph glyph-name="s1g" unicode="&#57410;" d="M199 240c-9 10-13 15-25 29-11 11-20 23-28 37-13 21-33 10-31-12 2-22 17-39 31-68-20 8-39 19-55 34-33 36-42 95-46 122-6 43-35 31-35 31-11-62 6-191 51-227 45-36 60-56 64-108l106 0c0 0 1 21 2 36 11 45-2 92-34 126z m303 173c0 0-29 12-35-31-4-27-13-87-46-122-16-15-34-27-55-34 15 29 30 46 31 68 2 22-18 33-31 12-8-14-17-26-28-37-12-14-16-18-25-29-32-34-45-81-34-126 0-15 1-36 1-36l106 0c5 52 19 72 64 108 46 36 63 165 52 227z m-167-22c1 21-14 39-34 43-12-25-41-35-65-24-11 5-19 13-24 24-21-3-36-22-34-43 0-55 78-93 78-93 0 0 79 38 79 93z"/>
<glyph glyph-name="s1h" unicode="&#57411;" d="M272 182l-35 0 0-85c0-9-3-18-9-26-6-5-13-8-21-7-29 0-30 31-30 37 0 10-8 18-18 18-10 0-18-8-18-18 0-25 14-72 65-72 17-1 34 6 47 18 12 13 19 31 18 50l0 85z m224 19c0 129-97 218-220 228l-11 45c0 0-2 10-9 10-6 0-8-10-8-10l-11-46c-124-8-221-98-221-227l141 0 0 41c0 19 15 34 34 34 0 0 0 0 0 0l36 0 29-40 29 40 36 0c19 0 34-15 34-34 0 0 0 0 0 0l0-41z m-239 97c-23 0-41 18-41 40 0 23 18 40 41 40 22 0 40-17 40-40 0-22-18-40-40-40 0 0 0 0 0 0z"/>
<glyph glyph-name="s1i" unicode="&#57412;" d="M336 278c-11 3-17 5-21 6 42 45 76 209-59 209-135 0-101-164-59-209-7-2-14-4-21-6-74-14-161-25-161-192 0-54 139-65 205-67-25 19-55 49-55 85-1 24 16 45 40 48 39 8 51-33 51-33 0 0 12 40 51 33 23-4 40-25 40-48 0-36-30-66-55-85 66 2 205 13 205 67-1 167-88 178-161 192z"/>
<glyph glyph-name="s1j" unicode="&#57413;" d="M45 201l0 193 336 0 0-97 30-9 0 137-396 0 0-254 276 0-14 30z m448-37l-31 16c0 1 0 2-1 3l-26 72c-2 5-7 9-12 11l-151 44c-4 1-8 0-11-2l-90 0c-6 0-10-5-10-11 0-5 4-10 10-10 0 0 0 0 0 0l85 0 64-140c2-5 7-8 12-10l76-16 1 0 20-30c2-3 6-5 10-2 1 0 2 0 2 1l54 61c4 5 3 11-2 13z m-112 10c-15-1-28 10-29 25-1 5 0 10 3 14l-77 66c-2 2-3 6-1 9 2 2 6 3 9 1 0-1 0-1 0-1l77-65c4 3 9 5 14 5 15 1 28-10 30-26 1-14-11-27-26-28 0 0 0 0 0 0z m-147 76c6 0 11 4 11 10 0 6-5 10-10 10 0 0-1 0-1 0l-62 0c-6 0-11-4-11-10 0-6 5-10 11-10 0 0 0 0 0 0z m-71 120l194 0 0-25-194 0z m-47-155l0 20c5 1 10 4 14 7 5 3 8 7 10 12 3 6 4 12 4 18 0 5-1 11-3 16-3 5-6 10-11 13-7 5-15 9-23 12-7 3-10 5-11 6-1 1-1 2-1 4 0 1 0 2 2 4 2 1 4 2 6 2 7-1 12-4 16-9l3-3 20 20-3 2c-3 4-8 8-12 11-3 2-7 3-10 4l0 20-22 0 0-19c-7-1-14-4-19-9-6-6-9-14-9-22 0-5 1-10 3-14 3-5 6-9 11-13 7-5 15-9 24-13 4-1 7-3 10-6 1-2 2-4 2-6 0-3-1-6-3-8-3-2-5-3-8-3-10 1-18 6-24 13l-2 3-20-20 3-3c5-6 11-11 18-15 4-2 9-4 14-4l0-20z"/>
<glyph glyph-name="s1k" unicode="&#57414;" d="M394 453c-61 11-98-11-118-32l0-40c8-2 15-5 22-9 10-6 18-13 25-21l4-4-38-37-4 4c-8 11-21 18-35 19-5 1-11-1-15-4-3-2-5-6-5-10 0-3 2-7 4-9 7-6 15-10 24-13 16-6 32-15 47-25 9-6 16-15 20-25 5-11 8-22 8-33 0-12-3-24-8-34-4-10-11-19-19-25-9-7-20-11-30-13l0-42-40 0 0 40c-11 2-21 6-31 11-13 7-26 17-36 29l-4 4 37 38 4-5c12-16 29-26 49-28 7 0 13 3 18 8 5 4 8 10 8 17 0 5-2 10-5 14-6 7-14 12-22 15-17 7-34 16-49 27-9 6-16 14-21 23-12 24-7 53 12 72 11 11 25 18 40 19l0 37c-20 21-56 44-119 32-70-12-108-67-108-132 0-170 247-265 247-265 0 0 247 95 247 265-1 65-39 119-109 132z"/>
<glyph glyph-name="s1l" unicode="&#57415;" d="M484 163c-7 50-63 87-90 102-26 13-53 24-81 33-36 13-24 35-19 43 2 1 2 2 3 3 31 31 56 150-41 150-97 0-72-120-41-150 1-1 2-2 3-3 5-8 17-30-19-43-28-9-55-20-81-33-27-15-83-52-90-102-4-22 5-83 38-107 1 0 2-1 2-2l0-36 377 0 0 36c1 1 1 2 1 2 33 24 42 84 38 107z m-61-21c-18 0-32-22-32-49 0-28 14-49 32-50l0-3-334 0 0 3c18 1 32 23 32 50 0 26-14 49-32 49l0 66 334 0z m-292-49l250 0 0-21-250 0z m0 82l112 0 0-53-112 0z"/>
<glyph glyph-name="s1m" unicode="&#57416;" d="M375 220l-2 1c-13-81-82-140-164-140l-3 0c10 13 22 25 35 35 16 9 41 18 54 38 12 20 16 47-2 49-19 2-25-9-32 0-8 8-6 19-21 29-12 7-25 9-38 8-4-1-9-2-14-4-2 5-5 9-9 12-13 13-43 21-42 35 2 10 9 18 27 12 17-6 33 17 38 36 5 14 13 14 20 17-3 8-5 16-7 24l-5 0c-14-1-19 20-24 15-6-6-14-24-22-15-9 9-14 21-14 33 13 5 27 8 41 9 8 0 17-3 23-8 1 15 6 30 14 43-7 0-13 0-20 0-111 0-201-90-201-201 0-111 90-201 201-201 106-1 194 82 201 187-7-3-14-7-22-9z m-192-137c-91 15-153 100-139 191 6 39 26 75 56 101-2-4-4-8-6-12-11-14-15-33-13-51 0-18 7-37 20-51 10-9 23-15 36-17 16-5 26-3 38-16 4-6 5-12 4-19-1-5-4-8-11-10-10-4 0-23 18-40 15-14 15-56-3-76z m265 381c-56 10-73-33-73-33 0 0-16 43-72 33-34-5-59-35-57-70-1-89 129-139 129-139 0 0 130 50 130 139 2 35-23 65-57 70z"/>
<glyph glyph-name="s1n" unicode="&#57417;" d="M463 307l-2 1c-22 1-45-9-59-27l-35-45c-6-3-12-3-18-1-10 3-14 26-16 43l-8 168c-2 14-13 24-27 24-14-1-25-13-25-27l0-153c-2-1-4-2-6-2-3 0-6 1-8 3l-26 181c-2 14-14 24-28 23-14-2-24-15-22-29l16-185c-1-1-2-2-3-2-2-1-5-1-7-1l-44 147c-3 12-16 19-28 17-13-4-20-16-18-29l33-152c-1-1-2-2-4-2-3-1-6-2-9-2l-29 56c-9 19-23 37-39 31-16-6-10-33-5-49l23-54 10-28c8-27 25-83 40-119 20-47 41-70 84-76 42-5 84 3 120 24 5 2 10 6 14 10 0 1 1 1 1 2 12 14 23 30 30 47 0 0 24 48 45 89 14 28 31 56 49 82 7 14 16 27 1 35z m-234-234c0 0-86 42-86 102-1 23 15 43 38 46 37 7 48-31 48-31 0 0 11 38 49 31 22-4 38-24 38-46 0-60-87-102-87-102z"/>
<glyph glyph-name="s1o" unicode="&#57418;" d="M362 408c0-10-1-19-4-29 24 7 40 29 40 54 0 31-25 56-56 56-6 1-11 0-16-2 23-20 36-49 36-79z m-107-88c48 0 87 39 87 88 0 48-39 87-87 87-48 0-88-39-88-87 0-49 40-88 88-88z m13 79c-3 3-7 5-11 6-7 3-14 7-20 11-4 2-6 6-8 9-2 4-3 8-3 11 0 7 3 13 7 17 5 5 11 7 18 7l0 11 12 0 0-11c4-1 7-3 11-4 3-3 7-6 10-9l-12-12c-4 5-11 8-17 8-3 1-6 0-8-2-2-2-3-4-3-6 0-2 1-4 2-6 3-2 7-4 11-6 7-2 13-5 19-10 4-2 6-6 8-10 2-4 3-8 3-13 0-4-2-9-4-13-1-4-4-7-7-10-4-3-9-4-14-5l0-17-12 0 0 17c-5 0-10 2-15 4-5 4-10 8-15 12l13 12c5-7 14-11 23-12 3 0 7 1 9 4 3 2 4 6 4 9 1 3 1 6-1 8z m205-214l-24 4c-2 16-9 32-18 45l10 29c2 3 1 8-3 10-2 1-4 1-5 1l-37-4c-38 28-85 42-133 41-103 0-187-63-187-140l0-1c-15-6-32-1-42 13-4 6-4 4-5 2 0 0 2-57 54-55 7-18 19-34 33-47l0-66 40 0 16 30c58-23 123-23 181 0l16-30 40 0 0 67c6 5 11 11 16 17l33-5c6-1 12 3 13 9 0 1 0 1 0 1l11 66c1 6-3 12-9 13z m-140 70c-2-6-8-9-14-7-36 11-74 11-110 0-1-1-3-1-4-1-5 0-9 3-11 8-2 6 1 12 7 14 41 13 84 13 125 0 6-2 9-8 7-14 0 0 0 0 0 0z m64-73c-8 0-15 7-15 16 0 8 7 15 15 15 9 0 16-7 16-15 0-9-7-16-15-16 0 0 0 0 0 0z"/>
<glyph glyph-name="s1p" unicode="&#57419;" d="M469 395c-20 20-48 31-77 30-42 0-85-22-113-36-7-4-13-6-18-9-4-1-8-3-12-3-2 1-4 3-6 5-33 27-74 43-117 45-44 1-84-23-105-62-15-29-12-66 8-93 42-55 185-173 191-179l1 0c8-5 17-8 26-8 7 0 14 2 21 4 22 7 112 79 127 94l45 42 37 39c34 37 31 95-6 129 0 0-1 1-2 2z m-203-273c-2-1-3-2-5-3-4-1-8-1-12-2-4 0-7 1-10 2-5 4-18 15-35 29 3 3 5 6 7 9 7 15 9 48-3 58-3 3-7 5-12 6 2 11 0 23-7 32-4 5-10 8-16 8-2 0-3 0-4-1 0 5 0 9 0 14-2 6-6 12-12 16-4 2-8 4-13 4-4 0-8-1-12-3l0 1c0 6-2 12-7 16-4 4-8 6-13 6-9-1-17-5-22-11l-2-2c-9-7-16-15-22-25-5 5-8 10-12 14-14 17-16 41-6 61 16 28 46 45 78 44l0 6 0-6c30-2 59-11 83-28-18-5-27-8-30-17-2-4-1-9 1-12 3-10 10-17 19-22l1-1c8-5 17-7 27-7 12 0 25 3 36 8 1 1 2 1 4 1 2 0 5-1 8-1 17-14 29-23 29-23 23-20 64-58 74-75 2-5 0-10-4-13-2-1-5-4-9-8l-51 47-16-18 48-44c-6-5-13-11-20-16l-46 42-17-18 43-39c-7-6-14-11-20-16l-39 36-17-18z"/>
<glyph glyph-name="smile" unicode="&#57420;" d="M345 293c26 0 46 20 46 45 0 25-20 45-46 45-25 0-45-20-45-45 0-25 20-45 45-45z m-89 210c-136 0-247-111-247-247 0-136 111-247 247-247 136 0 247 111 247 247 0 136-111 247-247 247z m0-477c-127 0-230 103-230 230 0 127 103 230 230 230 127 0 230-103 230-230 0-127-103-230-230-230z m85 104c-25-15-55-23-85-23-30 0-60 8-85 23-19 12-54 45-56 65-3 0-16 0-16 0 0 0 0-2 0-3 4-30 47-65 63-74 28-17 60-26 94-26 34 0 66 9 94 26 16 9 62 47 63 77-5 0-16 0-16 0 0 0 0-1 0-1-3-21-37-52-56-64z m-174 163c25 0 45 20 45 45 0 25-20 45-45 45-26 0-46-20-46-45 0-25 20-45 46-45z"/>
<glyph glyph-name="soc-fb" unicode="&#57421;" d="M383 512l-66 0c-75 0-123-50-123-126l0-58-67 0c-6 0-10-5-10-11l0-84c0-6 4-11 10-11l67 0 0-212c0-6 5-11 10-11l87 0c6 0 11 5 11 11l0 212 78 0c6 0 11 5 11 11l0 84c0 3-2 6-3 8-2 2-5 3-8 3l-78 0 0 49c0 24 6 36 36 36l45 0c6 0 11 4 11 10l0 78c0 6-5 11-11 11z"/>
<glyph glyph-name="soc-in" unicode="&#57422;" d="M506 202l0-185-107 0 0 173c0 43-16 73-54 73-30 0-48-20-55-40-3-7-4-16-4-26l0-180-107 0c0 0 1 292 0 323l107 0 0-46c0 0-1-1-1-1l1 0 0 1c14 22 40 53 97 53 70 0 123-46 123-145z m-440 293c-36 0-60-24-60-56 0-30 23-55 59-55l1 0c37 0 60 25 60 55 0 32-23 56-60 56z m-54-478l107 0 0 323-107 0z"/>
<glyph glyph-name="soc-tw" unicode="&#57423;" d="M506 411c-18-8-38-14-59-16 21 13 38 33 45 57-19-12-41-21-65-25-19 20-45 32-75 32-56 0-102-46-102-102 0-8 0-16 2-24-85 5-161 45-211 107-9-15-14-32-14-51 0-36 18-67 45-86-16 1-32 6-46 13l0-1c0-50 35-91 82-101-8-2-17-3-27-3-6 0-13 0-19 2 13-41 51-71 96-72-35-27-80-43-128-43-8 0-16 0-24 1 45-29 99-46 157-46 189 0 292 156 292 292l0 13c20 15 38 33 51 53z"/>
<glyph glyph-name="sync" unicode="&#57424;" d="M305 60c-22-7-42-12-81-15-99-5-150 38-150 55l0 45c35-22 89-33 150-37 21-1 17-1 24-1l0 41c-19 1-6 0-24 1-92 3-143 33-149 51 0 0 0 0 0 0 0 0 0 0 0 0 0 1-1 3-1 4l0 45c35-22 89-36 150-36 39 0 61 2 81 7l0 42c-34-9-34-9-81-9-99 0-150 38-150 55l0 45c35-22 89-36 150-36 60 0 114 14 149 36l1-40 40-1 0 100c0 52-85 95-190 95-105 0-190-43-190-95l0-312c0-53 85-95 190-95 42 0 66 5 102 16z m-81 406c68 0 113-18 135-34 9-8 14-15 14-20 0-16-51-54-149-54-99 0-150 38-150 54 0 16 51 54 150 54z m190-318l0 144-83 0 0-144-68 0 110-116 109 116z m-110-19l44 0 0 143 50 0 0-143 43 0-68-70z"/>
<glyph glyph-name="thumbs-down" unicode="&#57425;" d="M502 486l0-240-93 0c-48 0-69-34-90-71-11-19-22-36-34-55-19-25-33-54-43-84-2-8-10-13-18-12-33 0-54 6-64 30-9 19-7 50 7 100 2 7 4 14 7 21l-105 0c-28-2-53 17-59 44-2 17 3 34 16 46-9 11-13 25-13 38 1 15 8 29 20 38-5 10-6 21-5 33 4 16 14 30 28 38-3 31 19 59 50 63 28 7 56 8 84 4 23-4 45-9 67-18 18-7 38-11 57-11l78 0 0 38 110 0 0-2z m-412-80c3-8-2-18-11-21-9-2-17-10-18-20-2-7 1-14 7-18 7-5 9-16 4-23-2-3-5-5-9-6-9-2-15-9-16-18-1-10 5-19 14-22 8-4 12-13 8-21-1-5-5-8-10-10-9-2-16-12-16-22 2-13 15-16 26-16l103 0c38 0 45-8 32-43-2-7-5-14-7-20-11-42-15-66-9-77 3-6 12-9 24-10 11 29 26 56 44 81 11 18 22 34 32 53 24 40 45 80 102 87l0 137-78 0c-24-1-48 4-69 14-19 8-39 13-60 15-23 3-47 3-70-2-10-4-24-10-26-21 2-6 2-11 3-17z m380 47l-44 0 0-173 44 0z"/>
<glyph glyph-name="thumbs-up" unicode="&#57426;" d="M8 25l0 241 94 0c49 0 70 34 91 72 10 18 22 36 34 55 19 26 33 54 43 84 2 8 10 13 18 12 33 0 54-6 65-29 9-20 7-51-7-101-2-7-5-15-8-21l106 0c28 2 54-17 59-45 3-17-3-34-15-46 8-11 13-25 13-39-1-14-9-28-20-37 4-10 6-22 4-33-3-16-14-30-28-39 3-31-19-59-50-63-28-7-57-8-85-4-23 4-45 9-67 18-18 7-38 11-58 12l-78 0 0-39-111 0z m415 80c-3 9 2 18 11 21 9 3 17 10 18 20 2 7-1 14-7 19-7 5-9 15-4 23 2 3 5 5 9 6 9 2 16 9 17 18 0 10-5 19-15 22-8 4-12 13-8 22 1 4 5 7 10 9 10 3 16 12 16 22-2 13-15 17-26 17l-103 0c-39 0-46 8-33 43 3 7 5 13 7 20 12 42 15 66 9 78-3 5-11 8-24 9-11-29-26-56-44-81-12-18-22-34-33-53-23-41-44-81-102-88l0-138 79 0c24 1 47-4 69-14 19-7 40-13 60-15 24-3 48-2 71 2 10 4 24 10 26 22-2 5-2 10-3 16z m-382-47l44 0 0 174-44 0z"/>
<glyph glyph-name="thumbs-up-fill" unicode="&#57427;" d="M512 282l0-46c0-7-1-12-3-17l-71-165c-7-16-23-28-42-28l-210 0c-26 0-46 21-46 47l0 232c0 13 5 25 13 33l153 154 25-25c6-6 10-15 10-25 0-2 0-5 0-7l-23-106 147 0c26 0 47-21 47-47z m-512 23l93 0 0-279-93 0z"/>
<glyph glyph-name="tick" unicode="&#57428;" d="M448 436l-255-255-123 120-52-52 173-173 310 308"/>
<glyph glyph-name="tick-circle" unicode="&#57429;" d="M504 262c0 1 0 1 0 2 0 2 0 3 0 5 0 1 0 2 0 2 0 2 0 3 0 5 0 1 0 2-1 2 0 2 0 3 0 5 0 1 0 2 0 2-1 2-1 4-1 6 0 0 0 1 0 1-1 2-1 5-1 7 0 0 0 0 0 0-1 2-1 5-2 7 0 0 0 1 0 1 0 2-1 4-1 6 0 0-1 1-1 1 0 2 0 4-1 5 0 1 0 1 0 2-1 2-1 4-2 5 0 1 0 1 0 1-2 7-5 14-7 20 0 0 0 1 0 1-1 2-2 4-3 6 0 0 0 0 0 0-1 2-2 4-3 6 0 0 0 0 0 1-1 2-2 4-3 6l-260-258-146 146 44 44 104-103 222 223c0 0 0 0 0 0-1 2-2 3-4 5 0 0 0 0 0 0-1 1-3 3-4 4 0 0 0 0 0 1-14 13-29 25-45 36 0 0-1 0-1 0-1 1-3 2-5 3 0 0 0 0 0 1-2 0-4 1-5 2 0 0-1 1-1 1-2 1-3 1-5 2 0 0 0 1-1 1-1 1-3 1-4 2-1 0-1 1-2 1-1 1-3 1-4 2-1 0-1 0-1 1-2 0-4 1-5 2 0 0-1 0-1 0-2 1-4 2-5 2-1 0-1 0-1 1-6 2-12 4-18 6-1 0-1 0-1 0-2 1-4 1-6 2 0 0-1 0-1 0-2 1-3 1-5 1 0 1-1 1-2 1-1 0-3 1-4 1-1 0-2 0-2 1-2 0-3 0-4 0-1 0-2 1-3 1-1 0-2 0-4 0 0 1-1 1-2 1-2 0-3 0-4 1-1 0-2 0-3 0-1 0-2 0-4 0 0 0-1 1-2 1-2 0-3 0-4 0-1 0-2 0-3 0-1 0-3 0-4 1-1 0-2 0-2 0-2 0-3 0-5 0-1 0-1 0-2 0-2 0-5 0-7 0-137 0-248-111-248-248 0-137 111-249 248-249 137 0 249 112 249 249 0 2 0 4-1 7z"/>
<glyph glyph-name="trash" unicode="&#57430;" d="M455 445l-110 0 0 29c1 17-12 30-28 30-1 0-1 0-1 0l-120 0c-16 1-29-12-29-28 0-1 0-1 0-2l0-29-110 0 0-20 21 0 28-389c1-16 14-28 30-28l241 0c16 0 29 12 30 28l27 389 21 0z m-268 29c-1 6 3 10 8 10 1 0 1 0 1 0l120 0c5 1 9-3 10-8 0-1 0-1 0-2l0-29-139 0z m199-437c0-5-5-9-10-9l-240 0c-5 0-10 4-10 9l-28 388 317 0z m-140 348l20 0 0-317-20 0z m-50-317l-19 317-20 0 20-317z m149 317l-19 0-10-317 19 0z"/>
<glyph glyph-name="upload" unicode="&#57431;" d="M442 323l-67 0 0-31 67 0c14 0 26-11 26-25 0 0 0 0 0-1l0-164c0-14-11-26-25-26 0 0-1 0-1 0l-370 0c-14 0-25 11-25 25 0 1 0 1 0 1l0 164c0 14 11 26 25 26 0 0 0 0 0 0l67 0 0 31-67 0c-31 0-56-26-56-57l0-164c0-31 25-56 56-57l370 0c31 1 57 26 57 57l0 164c0 31-26 57-57 57z m-185 144l-4-4-89-90c-6-6-6-16 0-22 7-6 16-6 22 0l56 57 0-240c0-9 7-16 15-16 9 0 16 7 16 16l0 240 55-55c6-7 17-7 23 0 6 6 6 16 0 22z"/>
<glyph glyph-name="write" unicode="&#57432;" d="M68 356l139 139c4 4 8 6 13 5l210 0c10 1 18-7 19-17l0-454c0-9-7-17-17-17 0 0 0 0-1 0l-350 0c-10 0-18 7-18 16 0 1 0 1 0 1l0 315c1 4 2 9 5 12z m166 110l0-122c0-8-7-14-14-14l-122 0 0-283 315 0 0 419z m-115-110l88 0 0 88z"/>
<glyph glyph-name="soc-utube" unicode="&#57433;" d="M132 320l33 0 0 75 42 107-35 0-22-72-3 0-22 72-35 0 42-110z m70 94l0-69c-1-10 3-20 11-26 10-7 21-11 32-10 12-1 24 3 34 10 8 6 12 16 11 26l0 69c1 10-4 19-11 25-9 7-21 10-32 10-12 0-23-3-34-9-6-7-11-16-11-26z m31-72l0 73c1 3 2 5 4 7 2 2 5 3 8 3 4 0 7-1 10-3 3-2 3-3 3-7l0-71c0-3-1-6-3-9-3-2-6-3-10-3-3 0-7 2-10 3 0 2-2 4-2 7z m104-30c6 0 13 2 18 5 7 3 13 7 19 12l0-15 30 0 0 133-30 0 0-102c-3-2-7-5-10-6-3-2-6-3-9-4-3 0-5 0-6 2-2 2-2 3-2 7l0 105-30 0 0-112c-1-6 1-13 5-18 2-5 7-7 15-7z m68-143c-3 0-7-1-10-4-2-3-4-7-3-11l0-12 25 0 0 12c0 4-1 8-3 11 0 2-4 4-9 4z m-102 0c-1 0-3-1-5-2-1 0-3-2-5-3l0-75c2-2 5-4 7-5 2 0 5-2 7-2 3 0 7 0 7 3 1 3 2 6 1 9l0 61c0 4-1 7-3 10-2 3-5 4-9 4z m197 53c0 32-33 58-73 58-57 2-117 4-177 4-60 0-118 0-177-4-40 0-73-26-73-58 2-25 0-50 0-77 0-25 2-52 3-77 0-31 34-58 74-58 56-2 116-3 176-3 61 0 119 0 177 3 40 0 74 27 74 58 1 25 3 52 3 77-2 27-3 52-7 77z m-372-157l-31 0 0 140-32 0 0 24 95 0 0-24-32 0z m110 0l-28 0 0 14c-5-5-10-9-17-12-5-2-11-3-16-3-6-1-11 1-15 5-4 4-6 10-5 16l0 100 28 0 0-93c0-3 0-5 2-7 1-1 3-2 5-2 3 0 6 2 8 4 4 1 6 3 8 6l0 92 29 0 0-120z m106 25c0-7-2-14-7-20-5-5-12-7-19-6-5 0-10 1-15 3-4 2-8 5-11 8l0-10-29 0 0 164 29 0 0-54c3 4 7 7 12 9 4 2 8 3 13 3 7 0 15-3 20-8 5-7 7-15 7-24l0-65z m103 32l-53 0 0-23c-1-5 1-10 3-14 6-4 14-4 20 0 2 4 4 9 3 14l0 8 29 0 0-8c0-11-3-21-10-29-9-7-21-11-32-10-11 0-21 3-28 10-7 7-11 17-10 27l0 55c-1 10 3 19 11 25 9 7 19 10 30 10 11 1 21-3 29-10 7-7 10-17 10-27l0-28-2 0z"/>
<glyph glyph-name="soc-vimo" unicode="&#57434;" d="M512 392c5 20 2 42-10 60-18 23-58 24-85 20-57-16-103-59-121-115 44 4 68-3 63-53-3-23-12-45-24-65-13-25-38-74-71-38-30 32-28 93-35 133-3 25-8 50-15 75-5 21-20 39-39 49-20 4-41 0-58-11-44-26-78-63-117-94l0-3c7-8 9-20 21-21 27-4 52 24 70-5 9-19 16-38 21-59 9-26 16-54 24-85 13-51 29-127 73-146 22-9 56 4 73 14 45 28 83 65 114 108 52 71 92 151 116 236z"/>
</font>
</defs>
</svg>
